<?xml version="1.0" standalone="no"?><!DOCTYPE svg PUBLIC "-//W3C//DTD SVG 1.1//EN" "http://www.w3.org/Graphics/SVG/1.1/DTD/svg11.dtd"><svg t="1662601713759" class="icon" viewBox="0 0 1024 1024" version="1.1" xmlns="http://www.w3.org/2000/svg" p-id="2993" xmlns:xlink="http://www.w3.org/1999/xlink" width="128" height="128"><path d="M229.423962 696.372379A400.171867 400.171867 0 0 1 105.024985 405.933504a405.933504 405.933504 0 0 1 811.867007 0 400.957545 400.957545 0 0 1-104.757033 271.320716L500.482785 1000.167775z" fill="#2E85FF" p-id="2994"></path><path d="M522.481762 420.075703m-308.771355 0a308.771355 308.771355 0 1 0 617.542711 0 308.771355 308.771355 0 1 0-617.542711 0Z" fill="#FFFFFF" p-id="2995"></path><path d="M404.368207 286.772379a371.887468 371.887468 0 0 0 113.661381 85.376982l-13.094629 23.30844a351.459847 351.459847 0 0 1-109.4711-85.11509A369.530435 369.530435 0 0 1 286.254652 395.457801l-13.094629-23.570333a376.863427 376.863427 0 0 0 113.399488-85.376982z m84.329412 127.279795v19.118158a174.682353 174.682353 0 0 1-101.876215 96.114578l-16.761125-21.737084a165.516113 165.516113 0 0 0 89.043478-70.187212h-157.13555v-23.30844z m-53.949872-26.189258l-13.094629 20.689514a267.65422 267.65422 0 0 0-61.544757-35.355499l13.618414-19.903836a294.629156 294.629156 0 0 1 61.020972 34.046035zM639.023962 377.649105a457.002558 457.002558 0 0 0 6.023529-54.211765h-91.924297v-23.832225h209.514067v23.832225h-92.448082c0 19.903836-3.404604 37.974425-6.023529 54.211765h104.757033v23.832225H675.950816a203.490537 203.490537 0 0 0 101.614322 108.423529l-15.451662 20.165729a221.561125 221.561125 0 0 1-104.757034-117.58977 164.20665 164.20665 0 0 1-14.665984 36.926855 217.632737 217.632737 0 0 1-89.305371 80.924808l-15.451662-20.427622a196.419437 196.419437 0 0 0 81.448593-70.449105 157.13555 157.13555 0 0 0 15.18977-37.974424h-88.257801v-23.832225z" fill="#2E85FF" p-id="2996"></path></svg>